# Blender 3.4.1
# www.blender.org
mtllib rudder_boat_geo.mtl
o rudder_geo
v 0.540178 0.056594 0.511928
v 0.540178 0.056594 0.478264
v 0.540178 0.969457 0.511928
v 0.540178 0.969457 0.478264
v 0.525636 0.969457 0.511928
v 0.525636 0.969457 0.478264
v 0.525636 0.056594 0.511928
v 0.525636 0.056594 0.478264
v 0.525636 0.969457 0.495096
v 0.525636 0.056594 0.495096
v 0.540178 0.056594 0.495096
v 0.540178 0.969457 0.495096
v 0.532907 0.969457 0.495096
v 0.532907 0.969457 0.511928
v 0.532907 0.056594 0.511928
v 0.532907 0.056594 0.495096
v 0.532907 0.056594 0.478264
v 0.532907 0.969457 0.478264
v 0.540178 0.499627 0.511928
v 0.532907 0.499627 0.511928
v 0.525636 0.499627 0.511928
v 0.525636 0.499627 0.495096
v 0.525636 0.499627 0.478264
v 0.532907 0.499627 0.478264
v 0.540178 0.499627 0.478264
v 0.540178 0.499627 0.495096
v 0.540178 0.749441 0.511928
v 0.532907 0.749441 0.511928
v 0.525636 0.749441 0.511928
v 0.525636 0.749441 0.495096
v 0.525636 0.749441 0.478264
v 0.532907 0.749441 0.478264
v 0.540178 0.749441 0.478264
v 0.540178 0.749441 0.495096
v 0.540178 0.249814 0.511928
v 0.532907 0.249814 0.511928
v 0.525636 0.249814 0.511928
v 0.525636 0.249814 0.495096
v 0.525636 0.249814 0.478264
v 0.532907 0.249814 0.478264
v 0.540178 0.249814 0.478264
v 0.540178 0.249814 0.495096
v 0.866664 0.152770 0.506530
v 0.866664 0.152770 0.487650
v 0.866664 0.215670 0.506530
v 0.538383 0.215670 0.506530
v 0.538383 0.215670 0.487650
v 0.866664 0.215670 0.487650
v 0.787752 0.101840 0.506530
v 0.787752 0.101840 0.487650
v 0.787752 0.152770 0.506530
v 0.538383 0.152770 0.506530
v 0.538383 0.152770 0.487650
v 0.787752 0.152770 0.487650
v 0.538090 0.063683 0.507227
v 0.538090 0.063683 0.485560
v 0.538090 0.071619 0.507227
v 0.538090 0.071619 0.485560
v 0.538090 0.954732 0.507227
v 0.538090 0.954732 0.485560
v 0.538090 0.962668 0.507227
v 0.538090 0.962668 0.485560
v 0.507874 0.962668 0.507227
v 0.507874 0.962668 0.485560
v 0.507874 0.954732 0.507227
v 0.507874 0.954732 0.485560
v 0.999588 0.949601 0.511517
v 0.999588 0.949601 0.481270
v 0.999588 0.967800 0.511517
v 0.999588 0.967800 0.481270
v 0.527678 0.967800 0.511517
v 0.527678 0.967800 0.481270
v 0.527678 0.949601 0.511517
v 0.527678 0.949601 0.481270
v 0.527678 0.441589 0.482665
v 0.527678 0.422936 0.482665
v 0.527678 0.693597 0.482665
v 0.527678 0.674943 0.482665
v 0.716412 0.075262 0.506535
v 0.716412 0.075262 0.487650
v 0.538383 0.075262 0.506535
v 0.538383 0.075262 0.487650
v 0.716412 0.101840 0.506535
v 0.716412 0.101840 0.487650
v 0.538383 0.101840 0.506535
v 0.538383 0.101840 0.487650
v 0.971639 0.948483 0.506529
v 0.971639 0.948483 0.487654
v 0.538383 0.948483 0.506529
v 0.538383 0.948483 0.487654
v 0.971639 0.749440 0.506529
v 0.971639 0.749440 0.487654
v 0.950388 0.749440 0.506529
v 0.538383 0.749440 0.506529
v 0.538383 0.749440 0.487654
v 0.950388 0.749440 0.487654
v 0.925396 0.215670 0.506529
v 0.925396 0.215670 0.487654
v 0.925396 0.499630 0.506529
v 0.925396 0.499630 0.487654
v 0.950388 0.499630 0.506529
v 0.950388 0.499630 0.487654
v 0.925396 0.749440 0.506529
v 0.925396 0.948483 0.506529
v 0.925396 0.948483 0.487654
v 0.925396 0.749440 0.487654
v 0.950388 0.948483 0.487654
v 0.950388 0.948483 0.506529
v 0.571712 0.943068 0.508566
v 0.571712 0.943068 0.484221
v 0.571712 0.951004 0.508566
v 0.571712 0.951004 0.484221
v 0.556724 0.951004 0.508566
v 0.556724 0.951004 0.484221
v 0.556724 0.943068 0.508566
v 0.556724 0.943068 0.484221
v 0.909503 0.943068 0.508566
v 0.909503 0.943068 0.484221
v 0.909503 0.951004 0.508566
v 0.909503 0.951004 0.484221
v 0.894516 0.951004 0.508566
v 0.894516 0.951004 0.484221
v 0.894516 0.943068 0.508566
v 0.894516 0.943068 0.484221
v 0.527678 0.236902 0.482665
v 0.527678 0.218249 0.482665
v 0.527678 0.076513 0.482665
v 0.527678 0.057859 0.482665
v 0.534818 0.972998 0.529914
v 0.534818 0.972998 0.460277
v 0.534818 0.995517 0.529914
v 0.534818 0.995517 0.460277
v 0.465181 0.995517 0.529914
v 0.465181 0.995517 0.460277
v 0.465181 0.972998 0.529914
v 0.465181 0.972998 0.460277
v 0.534818 0.033747 0.529914
v 0.534818 0.033747 0.460277
v 0.534818 0.056266 0.529914
v 0.534818 0.056266 0.460277
v 0.465181 0.056266 0.529914
v 0.465181 0.056266 0.460277
v 0.465181 0.033747 0.529914
v 0.465181 0.033747 0.460277
v 0.500000 0.995517 0.460277
v 0.500000 0.995517 0.529914
v 0.500000 0.972998 0.529914
v 0.500000 0.972998 0.460277
v 0.534818 0.995517 0.495096
v 0.500000 0.995517 0.495096
v 0.465181 0.995517 0.495096
v 0.465181 0.972998 0.495096
v 0.500000 0.972998 0.495096
v 0.534818 0.972998 0.495096
vn 1.0000 -0.0000 -0.0000
vn -0.0000 1.0000 -0.0000
vn -1.0000 -0.0000 -0.0000
vn -0.0000 -1.0000 -0.0000
vn -0.0000 -0.0000 -1.0000
vn -0.0000 -0.0000 1.0000
vn 0.5385 -0.8426 -0.0001
vn 0.5385 -0.8426 -0.0000
vn 0.9387 -0.3447 -0.0003
vn 0.9387 -0.3447 -0.0000
vn 0.5491 -0.8358 -0.0000
vn 0.4493 -0.7899 0.4174
vn 0.5500 -0.1279 -0.8253
vn -0.3015 -0.0000 0.9535
vn -0.7071 -0.0000 0.7071
vn -0.8944 -0.0000 0.4472
vn 0.1554 -0.9879 0.0004
vn 0.3200 -0.9436 0.0853
vn -0.7071 -0.0001 -0.7071
vn -0.7498 -0.6600 -0.0472
vn 0.7500 -0.6597 -0.0474
vn 0.4330 -0.4357 0.7891
vn -0.7500 -0.6597 0.0474
vn -0.6170 0.1819 0.7656
vn -0.0002 -0.2545 -0.9671
vn -0.8100 -0.0000 -0.5865
vn -0.3194 -0.0000 -0.9476
vn 0.9282 -0.3720 -0.0003
vn 0.9282 -0.3720 -0.0000
vn 0.8835 -0.4685 -0.0001
vn 0.8835 -0.4685 -0.0000
vn -0.3194 -0.0000 0.9476
vn 0.9364 -0.3508 -0.0000
vn 0.9364 -0.3508 -0.0002
vn 0.9531 -0.3026 0.0003
vn 0.9531 -0.3026 -0.0000
vn 0.8485 -0.5291 -0.0000
vn 0.0353 0.8392 0.5427
vn 0.7195 0.5831 0.3771
vn 0.7195 0.5832 0.3771
vn 0.9997 0.0001 -0.0228
vn 0.0001 0.0702 -0.9975
vn -0.5825 -0.4726 0.6614
vn 0.9987 -0.0501 -0.0000
vn 0.7981 0.3974 -0.4529
vn 0.8788 -0.0000 -0.4772
vn 0.5350 0.3478 -0.7699
vn 0.9162 0.2599 -0.3051
vn -0.7071 -0.0000 -0.7071
vn -0.3015 -0.0000 -0.9535
vn 0.6945 -0.1882 -0.6945
vt 0.073048 0.249715
vt 0.876091 0.170677
vt 0.073029 0.374188
vt 0.752413 0.170677
vt 0.197767 0.124714
vt 0.626657 0.209007
vt 0.197747 0.249665
vt 0.502792 0.209007
vt 0.072815 0.124695
vt 0.753739 0.209007
vt 0.253511 0.209121
vt 0.072795 0.249645
vt 0.375347 0.209121
vt 0.375373 0.209007
vt 0.502723 0.170677
vt 0.998512 0.170677
vt 0.197521 0.249735
vt 0.197502 0.374208
vt 0.626231 0.170677
vt 0.072805 0.187170
vt 0.313140 0.209121
vt 0.564720 0.170677
vt 0.197511 0.311971
vt 0.073039 0.311952
vt 0.814570 0.170677
vt 0.197757 0.187190
vt 0.564143 0.209007
vt 0.135281 0.187180
vt 0.135291 0.124704
vt 0.691443 0.209007
vt 0.940917 0.170677
vt 0.135285 0.249725
vt 0.135275 0.311962
vt 0.135265 0.374198
vt 0.691167 0.170677
vt 0.135271 0.249655
vt 0.442227 0.209007
vt 0.753100 0.423651
vt 0.815101 0.523670
vt 0.814419 0.423651
vt 0.877203 0.523499
vt 0.876714 0.423651
vt 0.374863 0.423651
vt 0.940264 0.523949
vt 0.441962 0.523660
vt 0.441074 0.423651
vt 0.502614 0.523588
vt 0.502598 0.423651
vt 0.565401 0.523448
vt 0.563637 0.423651
vt 0.626840 0.523462
vt 0.627333 0.423651
vt 0.691994 0.523457
vt 0.690250 0.423651
vt 0.751815 0.523446
vt 0.753224 0.333657
vt 0.626532 0.299012
vt 0.814543 0.333658
vt 0.691318 0.299012
vt 0.876839 0.333658
vt 0.374981 0.333622
vt 0.753614 0.299012
vt 0.253393 0.299012
vt 0.441192 0.333623
vt 0.313023 0.299012
vt 0.502723 0.333654
vt 0.375248 0.299012
vt 0.563761 0.333655
vt 0.442102 0.299012
vt 0.627458 0.333656
vt 0.502667 0.299012
vt 0.690375 0.333656
vt 0.564018 0.299012
vt 0.876216 0.080419
vt 0.814976 0.527555
vt 0.941042 0.080420
vt 0.877079 0.524351
vt 0.502841 0.080637
vt 0.998636 0.080420
vt 0.940139 0.538003
vt 0.441845 0.526159
vt 0.564837 0.080637
vt 0.502497 0.524837
vt 0.626231 0.080638
vt 0.626231 0.080416
vt 0.565276 0.523632
vt 0.691291 0.080417
vt 0.626715 0.523838
vt 0.752538 0.080418
vt 0.691870 0.523731
vt 0.814695 0.080418
vt 0.751691 0.523541
vt 0.285576 0.088761
vt 0.375943 0.088761
vt 0.375943 0.088761
vt 0.375943 0.160794
vt 0.000000 0.160794
vt 0.000000 0.160764
vt 0.375943 0.160794
vt 0.443211 0.160794
vt 0.285576 0.030437
vt 0.285576 0.088761
vt 0.285576 0.030437
vt 0.285576 0.088761
vt 0.000000 0.088761
vt 0.000000 0.000000
vt 0.000000 0.088761
vt 0.000000 0.000000
vt 0.000000 0.030437
vt 0.285576 0.088761
vt 0.375943 0.088761
vt 0.285576 0.030437
vt 0.422022 0.228646
vt 0.667407 0.228646
vt 0.422022 0.351125
vt 0.667407 0.351125
vt 0.422022 0.947405
vt 0.422022 0.228646
vt 0.667407 0.947405
vt 0.667407 0.228646
vt 0.422022 0.351125
vt 0.667407 0.351125
vt 0.422022 0.585979
vt 0.175896 0.351125
vt 0.667407 0.585979
vt 0.953655 0.351125
vt 0.422022 0.692201
vt 0.175896 0.228646
vt 0.667407 0.692201
vt 0.953655 0.228646
vt 0.682018 0.016820
vt 0.682018 0.983181
vt 0.572529 0.016819
vt 0.572529 0.983181
vt 0.682018 0.741590
vt 0.572529 0.741590
vt 0.682018 0.500000
vt 0.791507 0.741590
vt 0.572529 0.500000
vt 0.463039 0.741590
vt 0.682018 0.258410
vt 0.791507 0.983181
vt 0.572529 0.258410
vt 0.463039 0.983181
vt 0.203878 0.000000
vt 0.203878 0.000000
vt 0.325407 0.029374
vt 0.000000 0.000000
vt 0.361132 0.029374
vt 0.000000 0.000000
vt 0.203878 0.030437
vt 0.203878 0.030437
vt 0.325407 0.056239
vt 0.000000 0.030437
vt 0.000000 0.000000
vt 0.000000 0.030437
vt 0.361132 0.056239
vt 0.000000 0.088761
vt 0.496165 1.000000
vt 0.471829 1.000000
vt 0.105031 0.913159
vt 0.496165 1.000000
vt 0.179356 0.913159
vt 0.471829 1.000000
vt 0.105031 0.029374
vt 0.000000 1.000000
vt 0.303586 0.912043
vt 0.179356 0.029374
vt 0.382952 0.912043
vt 0.000000 1.000000
vt 0.496165 0.772062
vt 0.471829 0.772062
vt 0.496165 0.772062
vt 0.471829 0.772062
vt 0.471829 0.772062
vt 0.496165 0.772062
vt 0.443211 0.772062
vt 0.303586 0.858434
vt 0.000000 0.772062
vt 0.382952 0.858434
vt 0.000000 0.772062
vt 0.471829 0.772062
vt 0.496165 0.772062
vt 0.443211 0.772062
vt 0.375943 0.160794
vt 0.443211 0.160794
vt 0.443211 0.160794
vt 0.443211 0.485982
vt 0.471829 0.485982
vt 0.443211 0.485982
vt 0.471829 0.485982
vt 0.471829 0.485982
vt 0.443211 0.485982
vt 0.471829 0.485982
vt 0.443211 0.485982
vt 0.443211 0.772062
vt 0.471829 0.772062
vt 0.443211 1.000000
vt 0.105031 0.818829
vt 0.471829 1.000000
vt 0.443211 1.000000
vt 0.471829 1.000000
vt 0.179356 0.818829
vt 0.443211 0.772062
vt 0.471829 0.772062
vt 0.496165 1.000000
vt 0.443211 1.000000
vt 0.179356 0.869810
vt 0.496165 1.000000
vt 0.105031 0.869810
vt 0.443211 1.000000
vt 0.422022 0.947405
vt 0.422022 0.228646
vt 0.667407 0.947405
vt 0.667407 0.228646
vt 0.422022 0.351125
vt 0.667407 0.351125
vt 0.422022 0.585979
vt 0.172556 0.351125
vt 0.667407 0.585979
vt 0.953655 0.351125
vt 0.422022 0.692201
vt 0.172556 0.228646
vt 0.667407 0.692201
vt 0.953655 0.228646
vt 0.422022 0.947405
vt 0.422022 0.228646
vt 0.667407 0.947405
vt 0.667407 0.228646
vt 0.422022 0.351125
vt 0.667407 0.351125
vt 0.422022 0.585979
vt 0.172556 0.351125
vt 0.667407 0.585979
vt 0.953655 0.351125
vt 0.422022 0.692201
vt 0.172556 0.228646
vt 0.667407 0.692201
vt 0.953655 0.228646
vt 0.376705 0.885321
vt 0.376705 0.114679
vt 0.569366 0.885321
vt 0.569366 0.114679
vt 0.376705 0.307339
vt 0.569366 0.307339
vt 0.376705 0.500000
vt 0.184045 0.307339
vt 0.762026 0.307339
vt 0.569366 0.500000
vt 0.184045 0.114679
vt 0.376705 0.692661
vt 0.762026 0.114679
vt 0.569366 0.692661
vt 0.376705 0.885321
vt 0.376705 0.114679
vt 0.569366 0.885321
vt 0.569366 0.114679
vt 0.376705 0.307339
vt 0.569366 0.307339
vt 0.376705 0.500000
vt 0.184045 0.307339
vt 0.569366 0.500000
vt 0.762026 0.307339
vt 0.376705 0.692661
vt 0.184045 0.114679
vt 0.569366 0.692661
vt 0.762026 0.114679
vt 0.665696 0.307339
vt 0.569366 0.403670
vt 0.376705 0.403670
vt 0.280375 0.307339
vt 0.280375 0.114679
vt 0.376705 0.788991
vt 0.665696 0.114679
vt 0.569366 0.788991
vt 0.473036 0.307339
vt 0.473036 0.403670
vt 0.473036 0.500000
vt 0.473036 0.692661
vt 0.473036 0.788991
vt 0.473036 0.885321
vt 0.473036 0.114679
s 1
usemtl rudderood01_mtlSG
f 1/2/1 11/25/1 42/91/1 35/74/1
f 3/5/2 12/26/2 13/28/2 14/29/2
f 37/78/3 38/82/3 10/22/3 7/15/3
f 15/32/4 16/33/4 11/24/4 1/1/4
f 2/4/5 17/35/5 40/87/5 41/89/5
f 15/31/6 1/2/6 35/74/6 36/76/6
f 38/82/3 39/84/3 8/19/3 10/22/3
f 11/24/4 16/33/4 17/34/4 2/3/4
f 42/91/1 11/25/1 2/4/1 41/89/1
f 18/36/2 13/28/2 12/26/2 4/7/2
f 14/29/2 13/28/2 9/20/2 5/9/2
f 7/16/6 15/31/6 36/76/6 37/79/6
f 7/17/4 10/23/4 16/33/4 15/32/4
f 17/34/4 16/33/4 10/23/4 8/18/4
f 40/87/5 17/35/5 8/19/5 39/85/5
f 9/20/2 13/28/2 18/36/2 6/12/2
f 20/40/6 19/38/6 27/56/6 28/58/6
f 21/42/6 20/40/6 28/58/6 29/60/6
f 29/61/3 30/64/3 22/46/3 21/43/3
f 30/64/3 31/66/3 23/48/3 22/46/3
f 32/68/5 24/50/5 23/48/5 31/66/5
f 25/52/5 24/50/5 32/68/5 33/70/5
f 34/72/1 26/54/1 25/52/1 33/70/1
f 19/38/1 26/54/1 34/72/1 27/56/1
f 28/59/6 27/57/6 3/6/6 14/30/6
f 29/62/6 28/59/6 14/30/6 5/10/6
f 5/11/3 9/21/3 30/65/3 29/63/3
f 9/21/3 6/13/3 31/67/3 30/65/3
f 18/37/5 32/69/5 31/67/5 6/14/5
f 33/71/5 32/69/5 18/37/5 4/8/5
f 12/27/1 34/73/1 33/71/1 4/8/1
f 27/57/1 34/73/1 12/27/1 3/6/1
f 36/77/6 35/75/6 19/39/6 20/41/6
f 37/80/6 36/77/6 20/41/6 21/44/6
f 21/45/3 22/47/3 38/83/3 37/81/3
f 22/47/3 23/49/3 39/86/3 38/83/3
f 24/51/5 40/88/5 39/86/5 23/49/5
f 41/90/5 40/88/5 24/51/5 25/53/5
f 26/55/1 42/92/1 41/90/1 25/53/1
f 35/75/1 42/92/1 26/55/1 19/39/1
f 106/204/5 98/187/5 47/98/5 95/181/5
f 97/186/6 103/196/6 94/179/6 46/97/6
s 0
usemtl ruddermetal_mtlSG
f 57/115/1 55/113/1 56/114/1 58/116/1
f 61/121/1 59/118/1 60/120/1 62/122/1
f 64/125/2 63/123/2 61/121/2 62/122/2
f 65/127/3 63/123/3 64/125/3 66/129/3
f 59/117/4 65/127/4 66/129/4 60/119/4
f 60/120/5 66/130/5 64/126/5 62/122/5
f 65/128/6 59/118/6 61/121/6 63/124/6
f 111/216/1 109/213/1 110/215/1 112/217/1
f 114/220/2 113/218/2 111/216/2 112/217/2
f 115/222/3 113/218/3 114/220/3 116/224/3
f 109/212/4 115/222/4 116/224/4 110/214/4
f 110/215/5 116/225/5 114/221/5 112/217/5
f 115/223/6 109/213/6 111/216/6 113/219/6
f 119/230/1 117/227/1 118/229/1 120/231/1
f 122/234/2 121/232/2 119/230/2 120/231/2
f 123/236/3 121/232/3 122/234/3 124/238/3
f 117/226/4 123/236/4 124/238/4 118/228/4
f 118/229/5 124/239/5 122/235/5 120/231/5
f 123/237/6 117/227/6 119/230/6 121/233/6
s 1
usemtl ruddersail_mtlSG
f 48/99/7 45/96/8 43/94/9 44/95/10
f 54/110/11 51/104/11 49/101/12 50/103/13
f 51/104/14 52/105/15 85/154/16 49/101/14
f 54/111/11 44/95/10 43/93/9 51/104/11
f 79/145/1 80/146/1 84/152/17 83/151/18
f 82/149/3 81/147/3 85/153/16 86/157/19
f 82/150/20 80/146/21 79/145/22 81/148/23
f 85/154/6 81/148/23 79/145/22 83/151/24
f 86/156/25 84/152/26 80/146/21 82/150/20
f 104/199/2 105/203/2 90/168/2 89/165/2
f 48/99/27 44/95/27 53/107/5 47/98/5
f 91/171/28 92/173/29 88/162/1 87/159/1
f 89/166/6 94/179/6 103/196/6 104/198/6
f 95/180/3 94/178/3 89/167/3 90/169/3
f 105/201/5 106/204/5 95/181/5 90/170/5
f 93/175/30 96/183/31 92/173/29 91/172/28
f 52/105/6 43/94/32 45/96/32 46/97/6
f 100/190/33 99/188/34 97/186/35 98/187/36
f 48/100/7 98/187/36 97/185/35 45/96/8
f 102/194/37 101/193/37 99/188/34 100/191/33
f 93/175/30 101/192/37 102/194/37 96/182/31
f 99/189/6 101/193/6 93/177/6 103/197/6
f 108/209/6 93/176/6 91/172/6 87/160/6
f 87/161/2 88/163/2 107/208/2 108/210/2
f 92/174/5 96/183/5 107/206/5 88/164/5
f 102/195/5 100/191/5 106/205/5 96/184/5
f 96/184/5 106/205/5 105/202/5 107/207/5
f 108/210/2 107/208/2 105/203/2 104/199/2
f 104/200/6 103/197/6 93/177/6 108/211/6
f 86/157/19 85/155/16 52/106/15 53/108/49
f 53/109/49 54/112/50 50/102/51 86/158/19
f 84/152/17 50/103/13 49/101/12 83/151/18
s 0
usemtl rudderwood03_mtlSG
f 69/135/1 67/132/1 68/134/1 70/136/1
f 72/139/2 71/137/2 69/135/2 70/136/2
f 73/141/3 71/137/3 72/139/3 74/143/3
f 67/131/4 73/141/4 74/143/4 68/133/4
f 68/134/5 74/144/5 72/140/5 70/136/5
f 73/142/6 67/132/6 69/135/6 71/138/6
s 1
usemtl rudderwood02_mtlSG
f 131/244/38 129/241/38 154/282/39 149/276/40
f 150/277/2 146/270/41 131/244/4 149/276/2
f 135/251/3 133/246/3 151/278/3 152/279/3
f 129/240/4 147/273/4 153/280/4 154/281/4
f 130/243/5 148/274/42 145/268/1 132/245/5
f 147/272/43 129/241/5 131/244/5 146/271/44
s 0
f 139/258/45 137/255/46 138/257/47 140/259/48
f 142/262/2 141/260/2 139/258/2 140/259/2
f 143/264/3 141/260/3 142/262/3 144/266/3
f 137/254/4 143/264/4 144/266/4 138/256/4
f 138/257/5 144/267/5 142/263/5 140/259/5
f 143/265/6 137/255/6 139/258/6 141/261/6
s 1
f 151/278/2 133/246/2 146/270/41 150/277/2
f 135/250/6 147/272/43 146/271/44 133/247/6
f 153/280/4 147/273/4 135/251/4 152/279/4
f 145/268/1 148/274/42 136/252/5 134/248/5
f 145/269/1 150/277/2 149/276/2 132/245/2
f 134/249/2 151/278/2 150/277/2 145/269/1
f 152/279/3 151/278/3 134/249/3 136/253/3
f 148/275/4 153/280/4 152/279/4 136/253/4
f 154/281/4 153/280/4 148/275/4 130/242/4
f 149/276/40 154/282/39 130/243/1 132/245/1
l 77 78
l 127 128
l 125 126
l 46 47
l 75 76
